<?xml version="1.0" standalone="no"?>
<!DOCTYPE svg PUBLIC "-//W3C//DTD SVG 20010904//EN"
 "http://www.w3.org/TR/2001/REC-SVG-20010904/DTD/svg10.dtd">
<svg version="1.0" xmlns="http://www.w3.org/2000/svg"
 width="500.000000pt" height="500.000000pt" viewBox="0 0 500.000000 500.000000"
 preserveAspectRatio="xMidYMid meet">
<metadata>
Created by potrace 1.11, written by Peter Selinger 2001-2013
</metadata>
<g transform="translate(0.000000,500.000000) scale(0.100000,-0.100000)"
fill="#000000" stroke="none">
<path d="M1300 4453 c-597 -87 -1052 -463 -1228 -1014 -69 -216 -66 -134 -69
-1587 l-3 -1312 437 2 438 3 3 40 c16 231 197 457 412 515 76 20 83 22 157 25
272 12 524 -177 588 -440 10 -38 22 -78 27 -89 6 -11 6 -16 0 -12 -6 3 -9 -5
-8 -19 l1 -25 443 0 442 0 0 28 c0 22 22 131 33 167 39 121 154 255 276 319
237 124 517 85 702 -99 105 -105 157 -219 174 -385 2 -14 3 -28 4 -32 1 -5
197 -8 436 -8 l435 0 -4 93 c-3 50 -6 94 -7 97 -1 3 0 10 1 15 2 6 3 550 4
1210 1 1081 -1 1209 -16 1295 -18 105 -27 142 -40 180 -3 8 -16 44 -28 80 -31
90 -142 305 -169 330 -4 3 -25 31 -49 62 -42 57 -156 177 -220 231 -122 104
-332 218 -494 268 -165 51 -281 67 -468 64 -91 -2 -178 -6 -195 -9 -16 -4 -55
-11 -85 -17 -58 -12 -171 -44 -205 -58 -11 -5 -45 -19 -75 -31 -123 -49 -305
-167 -405 -262 -22 -21 -42 -38 -45 -38 -3 0 -36 28 -75 61 -209 182 -451 294
-750 346 -36 6 -340 11 -375 6z"/>
</g>
</svg>
