<svg id="Layer_1" data-name="Layer 1" xmlns="http://www.w3.org/2000/svg" viewBox="0 0 279.09 219.66"><defs><style>.cls-1{fill:none;}.cls-2{fill:#ff722b;}.cls-3{fill:#17d1ff;}.cls-4{fill:#0c4c00;}.cls-5{fill:#ffcb2e;}.cls-6{fill:#1787ff;}</style></defs><title>logo</title><path class="cls-1" d="M156.56,186.1q.48,1.09.93,2.19Q157,187.19,156.56,186.1Z"/><path class="cls-2" d="M81.74,137.47h.18a81.37,81.37,0,0,1,57.46,23.7V23.7A81.37,81.37,0,0,0,81.93,0h-.18A81.72,81.72,0,0,0,.12,81.18H0v137.6H.12a81.71,81.71,0,0,1,81.62-81.32Z"/><path class="cls-3" d="M144.75,167c1.1,1.32,2.14,2.68,3.16,4.07C146.89,169.72,145.85,168.35,144.75,167Z"/><path class="cls-3" d="M139.38,159.73v1.44l.06.05A81.37,81.37,0,0,1,197,137.47h.53v0a81.7,81.7,0,0,1,81.29,74.56V82.19h.32c0-.18,0-.35,0-.53A81.72,81.72,0,0,0,197.48,0V0h-.53a81.37,81.37,0,0,0-57.51,23.76l-.06-.05v136Z"/><path class="cls-4" d="M163.45,214.89a81.65,81.65,0,0,0-.84-8.25q-.31-2-.72-4a80.91,80.91,0,0,0-2-7.85c-.69-2.2-1.49-4.35-2.35-6.47q-.45-1.1-.93-2.19c-.91-2-1.88-4.07-3-6-.35-.63-.72-1.25-1.08-1.87s-.59-1-.9-1.56q-.77-1.27-1.59-2.5c-.69-1-1.4-2-2.13-3-1-1.39-2.06-2.75-3.16-4.07q-2.52-3-5.31-5.81l-.06.06a81.36,81.36,0,0,0-17.72,26.3c-.16.37-.3.75-.45,1.13-.8,2-1.54,4-2.19,6q-.6,1.92-1.11,3.88a81,81,0,0,0-1.65,8q-.47,3-.71,6.17t-.24,6.3h48.24Q163.56,217,163.45,214.89Z"/><path class="cls-5" d="M81.93,137.47h-.18A81.71,81.71,0,0,0,.12,218.79c0,.1,0,.21,0,.31H48.88a32.9,32.9,0,0,1,32.86-32.86h.53a32.9,32.9,0,0,1,32.52,32.86h.53q0-3.18.24-6.3t.71-6.17a81,81,0,0,1,1.65-8q.51-2,1.11-3.88c.64-2.05,1.39-4.06,2.19-6,.15-.37.29-.75.45-1.13a81.36,81.36,0,0,1,17.72-26.3v-.11A81.37,81.37,0,0,0,81.93,137.47Z"/><path class="cls-5" d="M139.38,161.17v.11l.06-.06Z"/><path class="cls-5" d="M115.32,219.1h0q0-3.18.24-6.3Q115.32,215.92,115.32,219.1Z"/><path class="cls-5" d="M121.21,188.71c-.8,2-1.54,4-2.19,6C119.67,192.7,120.41,190.69,121.21,188.71Z"/><path class="cls-5" d="M117.92,198.64a81,81,0,0,0-1.65,8A81,81,0,0,1,117.92,198.64Z"/><path class="cls-6" d="M157.5,188.29c.87,2.12,1.66,4.27,2.35,6.47C159.16,192.56,158.36,190.41,157.5,188.29Z"/><path class="cls-6" d="M153.61,180.08c1.07,2,2,4,3,6C155.65,184.05,154.68,182,153.61,180.08Z"/><path class="cls-6" d="M278.77,212.06a81.7,81.7,0,0,0-81.29-74.56v0H197a81.37,81.37,0,0,0-57.51,23.76q2.79,2.77,5.31,5.81c1.1,1.32,2.14,2.68,3.16,4.07.73,1,1.45,2,2.13,3q.82,1.23,1.59,2.5c.31.51.6,1,.9,1.56s.74,1.24,1.08,1.87c1.07,2,2,4,3,6q.48,1.09.93,2.19c.87,2.12,1.66,4.27,2.35,6.47a80.91,80.91,0,0,1,2,7.85q.41,2,.72,4a81.65,81.65,0,0,1,.84,8.25q.11,2.09.11,4.21h.53A32.9,32.9,0,0,1,197,186.24h.51v0a32.9,32.9,0,0,1,32.86,32.86c0,.18,0,.35,0,.53h48.77c0-.18,0-.35,0-.53C279.09,216.75,279,214.39,278.77,212.06Z"/><path class="cls-6" d="M147.91,171.1c.73,1,1.45,2,2.13,3C149.35,173.12,148.64,172.11,147.91,171.1Z"/></svg>